<svg width="172" height="48" viewBox="0 0 172 48" fill="none" xmlns="http://www.w3.org/2000/svg">
<path d="M0.954545 3.19602V0.545454H14.8807V3.19602H9.4858V18H6.34943V3.19602H0.954545ZM17.6974 18H14.3224L20.4673 0.545454H24.3707L30.5241 18H27.1491L22.4872 4.125H22.3509L17.6974 18ZM17.8082 11.1562H27.0128V13.696H17.8082V11.1562ZM32.8232 18V0.545454H35.9851V8.56534H36.1982L43.0078 0.545454H46.8686L40.1186 8.37784L46.9283 18H43.1271L37.9197 10.517L35.9851 12.8011V18H32.8232ZM49.0653 18V0.545454H60.4176V3.19602H52.2273V7.93466H59.8295V10.5852H52.2273V15.3494H60.4858V18H49.0653ZM63.3196 18V16.0312L72.2685 3.19602H63.2685V0.545454H76.1889V2.5142L67.2486 15.3494H76.2401V18H63.3196ZM94.076 9.27273C94.076 11.1534 93.7237 12.7642 93.0192 14.1051C92.3203 15.4403 91.3658 16.4631 90.1555 17.1733C88.951 17.8835 87.5845 18.2386 86.0561 18.2386C84.5277 18.2386 83.1584 17.8835 81.9482 17.1733C80.7436 16.4574 79.7891 15.4318 79.0845 14.0966C78.3857 12.7557 78.0362 11.1477 78.0362 9.27273C78.0362 7.39205 78.3857 5.78409 79.0845 4.44886C79.7891 3.10795 80.7436 2.08239 81.9482 1.37216C83.1584 0.661931 84.5277 0.306818 86.0561 0.306818C87.5845 0.306818 88.951 0.661931 90.1555 1.37216C91.3658 2.08239 92.3203 3.10795 93.0192 4.44886C93.7237 5.78409 94.076 7.39205 94.076 9.27273ZM90.897 9.27273C90.897 7.94886 90.6896 6.83239 90.2749 5.92329C89.8658 5.00852 89.2976 4.31818 88.5703 3.85227C87.843 3.38068 87.005 3.14489 86.0561 3.14489C85.1072 3.14489 84.2692 3.38068 83.5419 3.85227C82.8146 4.31818 82.2436 5.00852 81.8288 5.92329C81.4197 6.83239 81.2152 7.94886 81.2152 9.27273C81.2152 10.5966 81.4197 11.7159 81.8288 12.6307C82.2436 13.5398 82.8146 14.2301 83.5419 14.7017C84.2692 15.1676 85.1072 15.4006 86.0561 15.4006C87.005 15.4006 87.843 15.1676 88.5703 14.7017C89.2976 14.2301 89.8658 13.5398 90.2749 12.6307C90.6896 11.7159 90.897 10.5966 90.897 9.27273Z" fill="#37B576"/>
<path d="M99.5455 0.545454V2.28409C99.5455 2.78409 99.4489 3.30398 99.2557 3.84375C99.0682 4.37784 98.8097 4.8892 98.4801 5.37784C98.1506 5.8608 97.7756 6.27557 97.3551 6.62216L95.9233 5.69318C96.2358 5.22159 96.5085 4.71307 96.7415 4.16761C96.9744 3.61648 97.0909 2.99432 97.0909 2.30114V0.545454H99.5455ZM111.684 5.34375C111.604 4.59943 111.269 4.01989 110.678 3.60511C110.093 3.19034 109.332 2.98295 108.394 2.98295C107.735 2.98295 107.17 3.08239 106.698 3.28125C106.227 3.48011 105.866 3.75 105.616 4.09091C105.366 4.43182 105.238 4.82102 105.232 5.25852C105.232 5.62216 105.315 5.9375 105.479 6.20455C105.65 6.47159 105.88 6.69886 106.17 6.88636C106.46 7.06818 106.781 7.22159 107.133 7.34659C107.485 7.47159 107.84 7.5767 108.198 7.66193L109.835 8.07102C110.494 8.22443 111.127 8.43182 111.735 8.69318C112.349 8.95455 112.897 9.28409 113.38 9.68182C113.869 10.0795 114.255 10.5597 114.539 11.1222C114.823 11.6847 114.965 12.3437 114.965 13.0994C114.965 14.1222 114.704 15.0227 114.181 15.8011C113.658 16.5739 112.903 17.179 111.914 17.6165C110.931 18.0483 109.741 18.2642 108.343 18.2642C106.985 18.2642 105.806 18.054 104.806 17.6335C103.812 17.2131 103.033 16.5994 102.471 15.7926C101.914 14.9858 101.613 14.0028 101.567 12.8438H104.678C104.724 13.4517 104.911 13.9574 105.241 14.3608C105.57 14.7642 105.999 15.0653 106.528 15.2642C107.062 15.4631 107.658 15.5625 108.317 15.5625C109.005 15.5625 109.607 15.4602 110.124 15.2557C110.647 15.0455 111.056 14.7557 111.352 14.3864C111.647 14.0114 111.798 13.5739 111.803 13.0739C111.798 12.6193 111.664 12.2443 111.403 11.9489C111.141 11.6477 110.775 11.3977 110.303 11.1989C109.837 10.9943 109.292 10.8125 108.667 10.6534L106.681 10.142C105.244 9.77273 104.107 9.21307 103.272 8.46307C102.442 7.70739 102.028 6.70455 102.028 5.45454C102.028 4.42614 102.306 3.52557 102.863 2.75284C103.425 1.98011 104.19 1.38068 105.156 0.954545C106.121 0.522727 107.215 0.306818 108.437 0.306818C109.675 0.306818 110.761 0.522727 111.692 0.954545C112.63 1.38068 113.366 1.97443 113.9 2.73579C114.434 3.49148 114.71 4.3608 114.727 5.34375H111.684Z" fill="#A0A0A0"/>
<path d="M0.630682 47L3.52841 29.5455H10.0739C11.4148 29.5455 12.5028 29.7784 13.3381 30.2443C14.1733 30.7102 14.7557 31.3636 15.0852 32.2045C15.4148 33.0398 15.4858 34.0142 15.2983 35.1278C15.1165 36.2415 14.7188 37.2102 14.1051 38.0341C13.4972 38.8523 12.6932 39.4858 11.6932 39.9347C10.6989 40.3835 9.53125 40.608 8.19034 40.608H3.52841L3.97159 37.983H8.21591C9 37.983 9.65909 37.875 10.1932 37.6591C10.7273 37.4375 11.1477 37.1165 11.4545 36.696C11.767 36.2699 11.9744 35.7472 12.0767 35.1278C12.1733 34.5085 12.1364 33.9801 11.9659 33.5426C11.8011 33.0994 11.4858 32.7642 11.0199 32.5369C10.5597 32.304 9.9375 32.1875 9.15341 32.1875H6.25568L3.79261 47H0.630682ZM10.9602 39.0909L13.9688 47H10.4403L7.50852 39.0909H10.9602ZM18.5753 47H15.2003L24.2429 29.5455H28.1463L31.402 47H28.027L25.6832 33.125H25.5469L18.5753 47ZM19.8196 40.1562H29.0241L28.598 42.696H19.3935L19.8196 40.1562ZM50.9425 29.5455L48.0447 47H45.2322L38.9851 35.1108H38.8487L36.8629 47H33.701L36.5987 29.5455H39.4283L45.6669 41.4432H45.8288L47.7976 29.5455H50.9425ZM57.4901 47H51.4901L54.3878 29.5455H60.3366C62.0696 29.5455 63.5071 29.9034 64.6491 30.6193C65.7912 31.3352 66.5923 32.358 67.0526 33.6875C67.5185 35.0114 67.598 36.5909 67.2912 38.4261C66.9957 40.2216 66.4134 41.7585 65.544 43.0369C64.6747 44.3153 63.5582 45.2955 62.1946 45.9773C60.831 46.6591 59.2628 47 57.4901 47ZM55.1037 44.2642H57.652C58.8622 44.2642 59.9162 44.0341 60.8139 43.5739C61.7173 43.108 62.4531 42.4176 63.0213 41.5028C63.5952 40.5824 63.9929 39.4403 64.2145 38.0767C64.4361 36.7699 64.4219 35.6903 64.1719 34.8381C63.9219 33.9801 63.4361 33.3409 62.7145 32.9205C61.9986 32.4943 61.0497 32.2812 59.8679 32.2812H57.0895L55.1037 44.2642ZM85.892 38.4773C85.5852 40.3295 84.9801 41.9091 84.0767 43.2159C83.179 44.517 82.0824 45.5142 80.7869 46.2074C79.4972 46.8949 78.108 47.2386 76.6193 47.2386C75.0568 47.2386 73.7159 46.875 72.5966 46.1477C71.4773 45.4148 70.6705 44.3665 70.1761 43.0028C69.6875 41.6392 69.6023 40.0028 69.9205 38.0938C70.2273 36.2472 70.8295 34.6676 71.7273 33.3551C72.625 32.0426 73.7244 31.0398 75.0256 30.3466C76.3267 29.6534 77.7301 29.3068 79.2358 29.3068C80.7869 29.3068 82.1165 29.6733 83.2244 30.4062C84.3381 31.1335 85.1392 32.1818 85.6278 33.5511C86.1222 34.9205 86.2102 36.5625 85.892 38.4773ZM82.7812 38.0938C82.9915 36.804 82.9716 35.7159 82.7216 34.8295C82.4773 33.9432 82.0426 33.2756 81.4176 32.8267C80.7926 32.3722 80.0227 32.1449 79.108 32.1449C78.1193 32.1449 77.2045 32.392 76.3636 32.8864C75.5284 33.375 74.8182 34.0909 74.233 35.0341C73.6534 35.9773 73.2557 37.125 73.0398 38.4773C72.8125 39.7727 72.8267 40.8608 73.0824 41.7415C73.3381 42.6222 73.7812 43.2869 74.4119 43.7358C75.0426 44.179 75.8125 44.4006 76.7216 44.4006C77.7045 44.4006 78.6136 44.1562 79.4489 43.6676C80.2841 43.179 80.9915 42.4659 81.571 41.5284C82.1562 40.5909 82.5597 39.446 82.7812 38.0938ZM90.3643 29.5455H94.2337L97.3274 42.1932H97.532L104.802 29.5455H108.671L105.773 47H102.739L104.734 35.0085H104.58L97.7621 46.9489H95.5036L92.674 34.983H92.5121L90.5007 47H87.4666L90.3643 29.5455ZM126.458 29.5455L123.56 47H120.748L114.501 35.1108H114.364L112.379 47H109.217L112.114 29.5455H114.944L121.183 41.4432H121.344L123.313 29.5455H126.458ZM127.006 47L129.903 29.5455H141.256L140.812 32.196H132.622L131.838 36.9347H139.44L138.997 39.5852H131.395L130.611 44.3494H138.869L138.426 47H127.006ZM153.149 34.429C153.172 33.6392 152.93 33.0341 152.425 32.6136C151.925 32.1932 151.206 31.983 150.268 31.983C149.609 31.983 149.027 32.0824 148.521 32.2812C148.021 32.4744 147.618 32.7443 147.311 33.0909C147.004 33.4318 146.814 33.821 146.74 34.2585C146.678 34.6165 146.709 34.929 146.834 35.196C146.959 35.4631 147.149 35.6903 147.405 35.8778C147.666 36.0653 147.962 36.2216 148.291 36.3466C148.626 36.4716 148.967 36.5767 149.314 36.6619L150.882 37.071C151.507 37.2244 152.104 37.4318 152.672 37.6932C153.24 37.9489 153.732 38.2784 154.146 38.6818C154.567 39.0795 154.874 39.5597 155.067 40.1222C155.26 40.6847 155.291 41.3437 155.161 42.0994C154.99 43.1222 154.578 44.0227 153.925 44.8011C153.277 45.5739 152.425 46.179 151.368 46.6165C150.317 47.0483 149.092 47.2642 147.695 47.2642C146.342 47.2642 145.2 47.054 144.268 46.6335C143.337 46.2074 142.655 45.5909 142.223 44.7841C141.797 43.9773 141.661 42.9972 141.814 41.8438H144.925C144.862 42.4517 144.962 42.9574 145.223 43.3608C145.49 43.7642 145.874 44.0653 146.374 44.2642C146.874 44.4631 147.453 44.5625 148.112 44.5625C148.8 44.5625 149.422 44.4602 149.979 44.2557C150.536 44.0455 150.99 43.7557 151.342 43.3864C151.7 43.0114 151.919 42.5739 151.999 42.0739C152.078 41.625 152.013 41.25 151.803 40.9489C151.592 40.6477 151.266 40.3977 150.822 40.1989C150.385 39.9943 149.862 39.8125 149.254 39.6534L147.362 39.142C145.993 38.767 144.953 38.2045 144.243 37.4545C143.538 36.7045 143.288 35.7045 143.493 34.4545C143.663 33.4205 144.092 32.5199 144.78 31.7528C145.467 30.9801 146.328 30.3807 147.362 29.9545C148.396 29.5227 149.527 29.3068 150.754 29.3068C151.993 29.3068 153.041 29.5227 153.899 29.9545C154.763 30.3864 155.393 30.9886 155.791 31.7614C156.195 32.5284 156.328 33.4176 156.192 34.429H153.149ZM168.735 34.429C168.758 33.6392 168.516 33.0341 168.011 32.6136C167.511 32.1932 166.792 31.983 165.854 31.983C165.195 31.983 164.613 32.0824 164.107 32.2812C163.607 32.4744 163.204 32.7443 162.897 33.0909C162.59 33.4318 162.4 33.821 162.326 34.2585C162.263 34.6165 162.295 34.929 162.42 35.196C162.545 35.4631 162.735 35.6903 162.991 35.8778C163.252 36.0653 163.548 36.2216 163.877 36.3466C164.212 36.4716 164.553 36.5767 164.9 36.6619L166.468 37.071C167.093 37.2244 167.69 37.4318 168.258 37.6932C168.826 37.9489 169.317 38.2784 169.732 38.6818C170.153 39.0795 170.46 39.5597 170.653 40.1222C170.846 40.6847 170.877 41.3437 170.746 42.0994C170.576 43.1222 170.164 44.0227 169.511 44.8011C168.863 45.5739 168.011 46.179 166.954 46.6165C165.903 47.0483 164.678 47.2642 163.281 47.2642C161.928 47.2642 160.786 47.054 159.854 46.6335C158.923 46.2074 158.241 45.5909 157.809 44.7841C157.383 43.9773 157.246 42.9972 157.4 41.8438H160.511C160.448 42.4517 160.548 42.9574 160.809 43.3608C161.076 43.7642 161.46 44.0653 161.96 44.2642C162.46 44.4631 163.039 44.5625 163.698 44.5625C164.386 44.5625 165.008 44.4602 165.565 44.2557C166.121 44.0455 166.576 43.7557 166.928 43.3864C167.286 43.0114 167.505 42.5739 167.585 42.0739C167.664 41.625 167.599 41.25 167.388 40.9489C167.178 40.6477 166.852 40.3977 166.408 40.1989C165.971 39.9943 165.448 39.8125 164.84 39.6534L162.948 39.142C161.579 38.767 160.539 38.2045 159.829 37.4545C159.124 36.7045 158.874 35.7045 159.079 34.4545C159.249 33.4205 159.678 32.5199 160.366 31.7528C161.053 30.9801 161.914 30.3807 162.948 29.9545C163.982 29.5227 165.113 29.3068 166.34 29.3068C167.579 29.3068 168.627 29.5227 169.485 29.9545C170.349 30.3864 170.979 30.9886 171.377 31.7614C171.781 32.5284 171.914 33.4176 171.778 34.429H168.735Z" fill="white"/>
</svg>
